' *******************************************************************************
' Copyright (c) 2026 Contributors to the Eclipse Foundation
'
' See the NOTICE file(s) distributed with this work for additional
' information regarding copyright ownership.
'
' This program and the accompanying materials are made available under the
' terms of the Apache License Version 2.0 which is available at
' https://www.apache.org/licenses/LICENSE-2.0
'
' SPDX-License-Identifier: Apache-2.0
' *******************************************************************************
@startuml class_template_pack

class ExplicitClassTemplatePack1<OutArgs, InArgs...> {
    + Invoke(args: InArgs...)
}

class ExplicitClassTemplatePack2<OutArgs, InArgs...> {
    + Invoke(args: InArgs&&...)
}

class ImplicitClassTemplatePack1<OutArgs> {
    + Invoke(args: InArgs...)
}

class ImplicitClassTemplatePack2<OutArgs> {
    + Invoke(args: InArgs&&...)
}

' class ClassTemplatePackExample<OutArgs, InArgs...> {
'     + RegisterCallHandler(handler: std::function<OutArgs(InArgs...)>): Result<void>
' }

@enduml
