' *******************************************************************************
' Copyright (c) 2026 Contributors to the Eclipse Foundation
'
' See the NOTICE file(s) distributed with this work for additional
' information regarding copyright ownership.
'
' This program and the accompanying materials are made available under the
' terms of the Apache License Version 2.0 which is available at
' https://www.apache.org/licenses/LICENSE-2.0
'
' SPDX-License-Identifier: Apache-2.0
' *******************************************************************************
@startuml method_template_pack

class ExplicitMethodTemplatePack1 {
    + Create<ValueType, ArgumentTypes...>(ValueType, ArgumentTypes&&...)
}

class ExplicitMethodTemplatePack2 {
    + Create<ValueType, ArgumentTypes...>(ValueType, ArgumentTypes...)
}

class ImplicitMethodTemplatePack1 {
    + Create<ValueType>(ValueType, ArgumentTypes&&...)
}

class ImplicitMethodTemplatePack2 {
    + Create<ValueType>(ValueType, ArgumentTypes...)
}

@enduml
